<?xml version="1.0" standalone="no"?>
<!DOCTYPE svg PUBLIC "-//W3C//DTD SVG 20010904//EN"
 "http://www.w3.org/TR/2001/REC-SVG-20010904/DTD/svg10.dtd">
<svg version="1.0" xmlns="http://www.w3.org/2000/svg"
 width="1000.000000pt" height="1000.000000pt" viewBox="0 0 1000.000000 1000.000000"
 preserveAspectRatio="xMidYMid meet">

<g transform="translate(0.000000,1000.000000) scale(0.100000,-0.100000)"
fill="#000000" stroke="none">
<path d="M2380 2996 c0 -9 5 -16 10 -16 6 0 10 4 10 9 0 6 -4 13 -10 16 -5 3
-10 -1 -10 -9z"/>
<path d="M2554 2968 c-4 -7 -4 -10 1 -6 4 4 14 0 22 -10 13 -15 13 -15 3 6
-12 25 -16 27 -26 10z"/>
<path d="M2470 2956 c0 -7 -10 -16 -21 -19 -30 -8 -26 -15 107 -212 160 -235
197 -286 294 -405 455 -555 925 -960 1486 -1282 174 -100 487 -248 524 -248
35 0 360 156 538 258 99 56 286 175 361 229 344 247 590 462 843 738 150 163
160 174 183 206 11 15 56 71 100 125 124 152 294 394 277 394 -5 0 -15 -11
-22 -25 -7 -14 -15 -23 -18 -20 -3 2 1 11 8 20 17 21 7 29 -18 16 -11 -6 -28
-8 -36 -5 -9 3 -16 1 -16 -6 0 -6 5 -8 12 -4 7 4 8 3 4 -4 -4 -6 -12 -9 -19
-7 -7 3 -29 -21 -49 -53 -21 -31 -62 -88 -93 -127 -30 -38 -66 -85 -80 -103
-14 -17 -30 -32 -35 -32 -6 0 -10 44 -10 103 0 117 -6 148 -26 140 -8 -3 -14
0 -14 6 0 6 -7 8 -15 5 -13 -5 -15 -35 -15 -185 l0 -179 -119 -133 c-134 -150
-156 -170 -170 -166 -6 2 -76 69 -156 148 l-145 144 0 119 c0 109 -1 118 -19
118 -10 0 -24 -6 -30 -13 -7 -10 -12 -146 -13 -443 l-3 -428 -90 -74 c-159
-129 -393 -290 -605 -418 -91 -54 -409 -214 -426 -214 -11 0 -14 26 -14 143 0
78 -3 300 -6 492 l-5 350 82 85 c45 47 153 157 240 245 l158 160 -45 0 c-44
-1 -45 -1 -237 -193 -106 -106 -196 -190 -200 -186 -4 4 -7 97 -7 206 0 152
-3 198 -12 198 -7 0 -23 3 -35 6 -17 5 -23 2 -23 -10 0 -21 -16 -20 -30 2 -10
14 -11 14 -7 1 4 -13 1 -16 -16 -11 -22 5 -22 5 2 -21 13 -15 28 -24 34 -20 6
3 7 1 3 -6 -4 -6 -3 -17 2 -24 7 -8 13 -269 18 -725 6 -586 9 -712 21 -712 7
0 13 -4 13 -10 0 -22 -24 -13 -248 92 -34 16 -40 23 -31 34 15 19 15 19 -237
264 l-220 215 -7 435 c-8 476 -14 587 -29 572 -6 -6 -16 -8 -23 -6 -21 8 -25
-80 -25 -556 l0 -456 205 -204 c113 -112 204 -205 202 -207 -4 -4 -179 96
-285 162 -87 54 -312 215 -393 280 l-67 54 -7 527 c-4 289 -11 521 -15 514 -4
-7 -17 -9 -35 -4 l-28 7 7 -298 7 -298 -98 -99 c-54 -54 -103 -98 -109 -98
-10 0 -259 248 -343 341 l-41 46 0 293 c0 290 0 292 -22 311 -44 36 -48 27
-48 -99 0 -65 -2 -121 -5 -124 -6 -5 -28 15 -227 209 -114 111 -151 142 -133
113 10 -16 -7 -12 -28 8 -13 11 -17 12 -12 3 5 -8 98 -103 207 -210 l198 -194
0 -104 c0 -56 -4 -103 -9 -103 -10 0 -16 8 -122 141 -75 95 -200 267 -274 379
-28 41 -53 77 -58 78 -4 2 -4 9 0 15 4 6 0 8 -10 4 -9 -3 -19 -1 -23 5 -4 7
-3 8 4 4 16 -9 15 7 0 22 -16 16 -28 15 -28 -2z m3794 -914 c64 -62 116 -117
116 -122 0 -9 -215 -213 -230 -218 -6 -2 -10 49 -10 130 0 73 -3 177 -7 232
-4 70 -3 98 5 95 6 -2 63 -55 126 -117z m-2614 -273 c0 -77 -4 -129 -9 -127
-17 6 -140 113 -140 122 -1 14 131 146 140 140 5 -3 9 -64 9 -135z"/>
</g>
</svg>
